<svg xmlns="http://www.w3.org/2000/svg" viewBox="0 0 94.41 107.85"><title>KruseControl mocks 151028</title><path d="M23.07,65a2.44,2.44,0,0,1-2.47-2.44A2.49,2.49,0,0,1,23.07,60h16a2.48,2.48,0,0,1,2.5,2.5A2.43,2.43,0,0,1,39.07,65h-16Zm51.31,6.35h0l8.91,15.53a2.44,2.44,0,0,1-.88,3.38,2,2,0,0,1-1.85.21l-7.06-1.83L71.61,95.7a2.47,2.47,0,0,1-4.65.35l-5.62-9.71L55.6,96.29a2.5,2.5,0,0,1-3.38.88,2.69,2.69,0,0,1-1.15-1.47l-1.88-7.06-7,1.83a2.4,2.4,0,0,1-3-1.71,2.5,2.5,0,0,1,.29-2l8.94-15.45a13.2,13.2,0,0,1-1.09-5.27A14.11,14.11,0,0,1,61.34,52,14.16,14.16,0,0,1,75.4,66.08a14.22,14.22,0,0,1-1,5.27h0Zm-20.65-.41h0V71l0.12,0.15c3,4.88,10.06,5.21,13.92,1.35l0.14-.15H68a9.27,9.27,0,0,0,2.44-6.27A9.08,9.08,0,0,0,61.34,57a9,9,0,0,0-9,9.12,8.76,8.76,0,0,0,1.41,4.85h0Zm17.56,5h0l0,0a13.41,13.41,0,0,1-7.59,3.88H63.61l-0.09.06,0,0.06H63.37l0.12,0.18,4.85,8.47,1-3.65a2.53,2.53,0,0,1,3.06-1.8l3.65,1L71.28,76h0ZM51.4,76h0l0,0-4.71,8.21,3.59-1h0.06A2.51,2.51,0,0,1,53.37,85l1,3.65,4.83-8.47L59.31,80H59.22a14.33,14.33,0,0,1-7.82-4h0ZM11.12,0H60.25a4.15,4.15,0,0,1,2.94,1.24l30,30a3.85,3.85,0,0,1,1.24,2.94V96.73a10.84,10.84,0,0,1-3.27,7.8v0.06L91,104.7a11.28,11.28,0,0,1-7.74,3.15H11.12a10.93,10.93,0,0,1-7.83-3.27h0A11.07,11.07,0,0,1,0,96.73V11.12A11.18,11.18,0,0,1,3.27,3.27,11.05,11.05,0,0,1,11.12,0h0ZM57.75,8.3H11.12a3.08,3.08,0,0,0-2,.83,2.92,2.92,0,0,0-.82,2V96.73a3,3,0,0,0,.82,2h0a2.92,2.92,0,0,0,2,.82H83.29a2.59,2.59,0,0,0,2-.82h0a3,3,0,0,0,.82-2V36.66H67.19a9.27,9.27,0,0,1-6.65-2.77l-0.12-.17a9.37,9.37,0,0,1-2.68-6.5V8.3h0ZM81.9,31.66h0L62.72,12.5V27.21a4.44,4.44,0,0,0,1.24,3L64,30.36a4.55,4.55,0,0,0,3.15,1.3H81.9ZM23,42.57H71.78l0.06,0.06H72l0.06,0.06h0.12l0.06,0.06h0.12l0.06,0,0,0,0.06,0,0.06,0,0.06,0,0,0,0.06,0,0.06,0v0h0.06v0.06l0.06,0H73L73,43.16l0.06,0.06v0.06l0.06,0.06h0V43.4h0.06v0.06h0l0,0,0,0.06,0.06,0.06v0.06l0.06,0v0l0.06,0.06,0.06,0v0.06L73.61,44V44h0.06V44.1h0v0.06l0.06,0.06v0.12l0.06,0.09v0.44l0.06,0v0.23l-0.06.06v0.47l-0.06.06v0.12l-0.06.06V46L73.61,46V46.1l-0.06.06v0.06l-0.06.06-0.06,0v0.06l-0.06.06v0.06H73.31l0,0.06,0,0.06,0,0-0.06.06h0v0.06l-0.06.06v0.06H73L73,46.92,72.9,47H72.84v0l-0.06,0H72.72l-0.06.09h0l-0.06.06H72.52l-0.06.06h0l-0.06,0v0H72.31l-0.06,0H72.08V47.4H71.9l-0.06.06H71.78v0.06H22.65V47.45H22.59l-0.06-.06H22.36V47.34H22.18l-0.06,0H22.07v0l-0.06,0H21.95V47.19H21.83l0-.06H21.74l0-.09H21.65l-0.06,0v0H21.54l-0.06-.06-0.06-.06H21.36V46.81l-0.06-.06V46.69h0l-0.06-.06-0.09,0,0-.06,0-.06h0l0-.06,0-.06,0-.06,0,0-0.06-.06V46.16l-0.06-.06V46l-0.06-.06V45.84l-0.06-.06V45.66l-0.06-.06V45.19l-0.06-.06V44.9l0.06,0V44.48l0.06-.06V44.28l0.06-.06V44.1h0.06V44h0V44l0.06-.12V43.8l0.06,0,0-.06,0,0,0,0v0l0,0,0-.06,0-.06,0,0h0.09V43.4H21.3V43.33h0l0.06-.06V43.22l0.06-.06,0.06-.06h0.06l0.06,0V43h0.06v0l0.06,0,0,0,0.06,0,0,0,0.12,0v0l0.06,0,0.06,0h0.12l0.06-.06h0.12l0.06-.06h0.17l0.06-.06H23ZM23.07,30h0a2.52,2.52,0,0,1-2.47-2.53A2.47,2.47,0,0,1,23.07,25H49.78a2.44,2.44,0,0,1,2.44,2.47A2.49,2.49,0,0,1,49.78,30H23.07Z" style="fill:#bdb4ab"/></svg>