<svg xmlns="http://www.w3.org/2000/svg" viewBox="0 0 128.88 121.05"><title>KruseControl mocks 151028</title><path d="M18.38,60.84a4.93,4.93,0,1,1,6.92-7L30,58.49l4.68-4.68a4.94,4.94,0,0,1,7,0,5.05,5.05,0,0,1,0,7L37,65.48l4.64,4.64a5,5,0,0,1,0,7,4.94,4.94,0,0,1-7,0L30,72.44l-4.68,4.68a4.92,4.92,0,1,1-6.92-7L23,65.48l-4.6-4.64h0ZM100.2,2.36h0A17.68,17.68,0,0,1,82.56,33l-0.35-.28a17.63,17.63,0,0,1-6.12-23.9l0.21-.28a17.62,17.62,0,0,1,23.9-6.19h0ZM84.81,13.6h0l-0.14.18a7.79,7.79,0,0,0,2.6,10.51l0.21,0.14a7.79,7.79,0,1,0,7.77-13.5V10.86A7.82,7.82,0,0,0,84.81,13.6h0ZM72.86,65.9h0a5,5,0,1,1-6.29-7.66L86.36,42a5,5,0,0,1,3.51-1.4,4.93,4.93,0,0,1,4,2l16.41,19.93a5,5,0,0,1-7.66,6.29L93.7,57.92A69.18,69.18,0,0,1,27,114.55a14.74,14.74,0,1,1,2.46-9.91A59.33,59.33,0,0,0,83.83,56.87l-11,9h0ZM9.94,106.33h0a4.83,4.83,0,0,0,9.67,0h0a4.85,4.85,0,0,0-9.7,0h0Zm94.2-7.73h0a4.91,4.91,0,0,1,7-6.92l4.64,4.68,4.71-4.68a4.8,4.8,0,0,1,6.92,0,4.74,4.74,0,0,1,0,6.92l-4.6,4.68,4.6,4.6a5,5,0,0,1-6.92,7.1l-4.71-4.71L111.1,115a5,5,0,0,1-7-7.1l4.61-4.6-4.61-4.68h0Z" style="fill:#bdb4ab"/></svg>