<svg xmlns="http://www.w3.org/2000/svg" viewBox="0 0 125.57 102.05"><title>KruseControl mocks 151028</title><path d="M120.77,0H4.87A4.84,4.84,0,0,0,0,4.83V69.69a4.81,4.81,0,0,0,4.87,4.8H7.68a2.88,2.88,0,0,0,.75-0.07,15.88,15.88,0,0,0,2.26,4.83,21,21,0,0,0,2.6,3.16,12.12,12.12,0,0,0-3.22,1.34,14.78,14.78,0,0,0-5.55,4.94,13.23,13.23,0,0,0-1.92,4l-0.07.21a15.21,15.21,0,0,0-.62,4.25v1.92a3,3,0,0,0,2.95,2.95h115.9a2.94,2.94,0,0,0,2.91-2.95V97.19A16.22,16.22,0,0,0,121.83,90a17.71,17.71,0,0,0-2.16-3.12,16.77,16.77,0,0,0-2.84-2.47l-0.14-.07a19.24,19.24,0,0,0-3.91-1.78l-0.48-.17a18.9,18.9,0,0,0,2.64-3.09,18.22,18.22,0,0,0,2.23-4.76h3.6a4.79,4.79,0,0,0,4.8-4.8V4.83A4.82,4.82,0,0,0,120.77,0h0Zm-7.23,89.17h0l0.07,0.07a9.66,9.66,0,0,1,1.78,1.51v0a11.19,11.19,0,0,1,1.37,1.89,12.78,12.78,0,0,1,.82,2.23,8.92,8.92,0,0,1,.28,1.33H7.78a12.56,12.56,0,0,1,.27-1.61l0.11-.17a7.79,7.79,0,0,1,1.17-2.54,9.2,9.2,0,0,1,3.43-3.09,9.08,9.08,0,0,1,4.52-1.17H35a9.74,9.74,0,0,1,2.78.41,9.5,9.5,0,0,1,2.54,1.17c0.31,0.27.65,0.52,1,.82a9,9,0,0,1,.82.82,1.64,1.64,0,0,0,.41.45,2.89,2.89,0,0,0,4.08-.38,9.88,9.88,0,0,1,7.27-3.29H71.72a8.81,8.81,0,0,1,2.71.41,8.41,8.41,0,0,1,3.56,2,9.53,9.53,0,0,1,.82.82,2.57,2.57,0,0,0,.45.45,2.92,2.92,0,0,0,4.11-.38,9.38,9.38,0,0,1,3.22-2.4,9.8,9.8,0,0,1,4-.89h17.79a9.59,9.59,0,0,1,2.78.41,14.92,14.92,0,0,1,2.4,1.1h0ZM13.37,69h0a12.44,12.44,0,0,1,.24-2.53,17.27,17.27,0,0,1,.69-2.4A12.8,12.8,0,1,1,36.78,76a12.81,12.81,0,0,1-10.66,5.73,13.08,13.08,0,0,1-5-1A12.59,12.59,0,0,1,15.46,76a12.81,12.81,0,0,1-2.09-7h0ZM39,82.34h0a17.12,17.12,0,0,0,2.6-3.09,18.55,18.55,0,0,0,2.91-7.33,18.44,18.44,0,0,0,2.81,7.33,21.24,21.24,0,0,0,2.64,3.16,17.12,17.12,0,0,0-2.47.86,14.44,14.44,0,0,0-3,1.85c-0.38-.2-0.62-0.48-1-0.68a19,19,0,0,0-4-1.92L39,82.34h0ZM50,69h0a15.17,15.17,0,0,1,.24-2.53,11.24,11.24,0,0,1,.75-2.4A12.78,12.78,0,0,1,62.8,56.22,12.93,12.93,0,0,1,75.62,69,13.05,13.05,0,0,1,67.91,80.7l-0.14.07a13.08,13.08,0,0,1-5,1,12.53,12.53,0,0,1-4.94-1A12.87,12.87,0,0,1,52.14,76,12.56,12.56,0,0,1,50,69h0ZM75.62,82.34h0a13.81,13.81,0,0,0,2.61-3.09,17.55,17.55,0,0,0,2.88-7.33,18.6,18.6,0,0,0,2.95,7.33,15,15,0,0,0,2.6,3.16,12.81,12.81,0,0,0-2.47.86,16.24,16.24,0,0,0-3.09,1.85c-0.27-.2-0.62-0.48-1-0.68a16.92,16.92,0,0,0-4-1.92l-0.48-.17h0ZM86.7,69h0a13.61,13.61,0,0,1,.2-2.4V66.47A12.79,12.79,0,1,1,110.11,76a12.57,12.57,0,0,1-5.49,4.67l-0.21.07a12.78,12.78,0,0,1-4.94,1,13.17,13.17,0,0,1-5-1A13,13,0,0,1,86.7,69h0Zm29.24-8.6h0a19.39,19.39,0,0,0-3.39-4.56,18.53,18.53,0,0,0-30.2,6,19,19,0,0,0-1.1,3.5l0,0-0.1.65A18.63,18.63,0,0,0,62.8,50.43,18.9,18.9,0,0,0,45.63,61.84a16.29,16.29,0,0,0-1,3.5L44.5,66A18.63,18.63,0,0,0,9.64,60.37V9.7h106.3V60.4h0Z" style="fill:#bdb4ab"/></svg>